<svg xmlns="http://www.w3.org/2000/svg" viewBox="300 170 430 500" role="img" aria-label="BikeSafe Go">
  <path fill="currentColor" d="M437.813599,589.161255 C460.251007,606.325073 483.618561,621.353943 508.475677,634.050781 C511.326019,635.506592 513.837219,636.121582 516.913391,634.498230 C563.864258,609.721008 606.823792,579.697021 641.438232,538.927429 C657.722351,519.747620 669.934631,498.327637 674.136475,473.042633 C675.092285,467.291382 675.816040,461.536407 675.810791,455.675659 C675.773254,414.013092 675.768982,372.350281 675.899414,330.687988 C675.911316,326.886047 674.659058,325.151672 671.010864,323.944336 C640.654968,313.898560 610.127380,304.461121 579.057556,296.843384 C576.997009,296.338165 574.738770,296.174744 572.657593,294.020813 C575.003418,290.371826 578.232544,287.315857 581.329346,284.209656 C593.801697,271.699188 588.044128,272.893707 605.387512,277.488281 C636.311890,285.680725 666.722656,295.551361 696.985474,305.896210 C700.191467,306.992096 701.338806,308.757385 701.332642,312.114563 C701.243103,361.609650 701.934937,411.117706 700.999084,460.595398 C700.415710,491.440735 688.558899,518.965027 670.236755,543.627808 C647.020508,574.878113 617.823425,599.795471 586.376892,622.294189 C565.049988,637.552795 542.495789,650.730896 518.917236,662.187134 C515.658813,663.770386 512.727417,664.730835 509.028442,662.929199 C458.677460,638.403931 413.327759,606.936218 374.711823,566.172180 C356.786011,547.249146 342.191284,526.112671 333.289062,501.359070 C327.939606,486.484314 325.051239,471.114960 324.975433,455.381470 C324.748230,408.220398 324.930725,361.057434 324.793274,313.895721 C324.780273,309.434174 325.983582,306.998566 330.457855,305.433289 C363.330322,293.932800 396.586792,283.716156 430.230316,274.730255 C433.314087,273.906647 435.551422,274.258575 437.753876,276.746155 C441.727722,281.234406 446.031372,285.428955 450.115387,289.822327 C451.315918,291.113800 452.939636,292.238190 452.934875,294.367310 C451.320465,296.452881 448.791260,296.356476 446.619507,296.898712 C415.585571,304.647461 385.033630,314.004364 354.691467,324.094879 C351.182037,325.261993 350.196045,327.081757 350.204926,330.600067 C350.311737,372.929047 349.877930,415.263672 350.432312,457.585724 C350.787201,484.678314 361.516998,508.372498 377.550293,529.825745 C394.547424,552.568787 415.242126,571.567078 437.813599,589.161255 z"/>
  <path fill="currentColor" d="M486.432190,363.316742 C489.255371,366.095673 489.957245,368.988190 488.363708,372.231628 C486.767578,375.480225 483.933990,376.342651 480.499268,376.445770 C476.420685,376.568298 472.208801,375.610748 468.246399,377.361237 C470.251709,386.499634 471.919586,387.938446 480.267517,387.937012 C503.429291,387.933105 526.591125,387.953857 549.752747,387.904083 C552.704102,387.897736 555.713867,388.299072 558.664307,387.358307 C559.115906,384.883148 557.603943,383.149872 556.642944,381.290771 C553.048218,374.336426 549.171448,367.521362 545.769348,360.475891 C542.552979,353.815125 545.784058,348.781311 553.132690,348.695221 C562.796082,348.581909 572.461914,348.605377 582.126099,348.665222 C587.326233,348.697418 590.613831,351.465179 590.774780,355.689636 C590.937988,359.973663 587.399048,363.160126 582.035950,363.277557 C576.412292,363.400696 570.783875,363.305054 564.764099,363.305054 C564.983276,367.218170 566.964233,369.776062 568.387756,372.474915 C583.074280,400.320404 597.830994,428.128845 612.558594,455.952698 C613.415222,457.571136 614.407227,459.164185 614.956116,460.889954 C616.226379,464.884033 615.207214,468.263275 611.279541,470.120758 C607.284241,472.010162 604.169006,470.651215 602.116455,466.800476 C597.572083,458.274933 593.053650,449.735504 588.487854,441.221436 C587.717224,439.784424 587.283264,438.098755 585.256287,436.742554 C579.903137,441.495758 577.014893,447.756348 575.571045,454.568665 C570.451416,478.723969 588.122314,500.915497 612.745483,501.549316 C629.352539,501.976746 645.560608,489.734619 650.346985,473.148468 C655.093689,456.699890 647.688660,438.196350 632.889954,429.563019 C624.656067,424.759491 615.771179,422.839386 606.458069,424.878143 C602.021423,425.849396 599.881531,424.798615 597.947754,420.754089 C593.858215,412.201111 593.789490,411.978882 603.077087,410.016998 C634.265808,403.428802 665.678528,428.518860 666.361511,460.563690 C666.928528,487.165771 650.382263,508.948395 624.855469,515.205078 C595.854370,522.313293 566.381409,502.582214 560.822571,471.957306 C557.640747,454.428101 562.599548,438.934052 574.654846,425.922516 C577.431885,422.925232 578.086670,420.694061 575.739136,417.344116 C573.390808,413.993073 572.451660,409.760468 569.041687,406.159271 C563.887085,412.371063 558.899780,418.330933 553.967102,424.335663 C542.124573,438.751892 530.232422,453.128601 518.537354,467.663696 C515.853577,470.999176 512.776428,472.282043 508.629087,472.242188 C495.799652,472.118744 482.966797,472.300934 470.138550,472.125671 C466.670685,472.078308 465.205261,473.343384 464.223206,476.622467 C456.361847,502.870880 434.590729,518.068970 407.832858,516.203979 C383.944305,514.539062 363.297943,494.772614 360.084229,469.122742 C357.595215,449.256653 365.023346,432.610840 380.764130,420.382812 C396.740082,407.972076 414.604156,405.651978 433.540558,413.192841 C434.740051,413.670563 435.794708,414.512024 437.163116,415.331879 C435.875519,419.595367 433.003571,422.620117 430.421387,425.763824 C428.593628,427.989105 426.388763,426.282623 424.426544,425.726288 C398.524384,418.382599 373.386780,437.844635 374.329376,464.547485 C374.927063,481.479065 388.270203,497.361877 404.576569,500.551788 C422.374817,504.033478 439.869995,495.667938 447.230804,480.094727 C448.275055,477.885376 449.543610,475.667603 449.083862,473.043549 C447.208221,471.692719 445.142944,472.217285 443.209290,472.202087 C434.211670,472.131348 425.213196,472.141357 416.215179,472.165161 C412.740570,472.174347 409.966919,470.906097 408.463409,467.712219 C406.902496,464.396454 407.573334,461.356995 409.827087,458.411316 C425.414185,438.038879 440.879425,417.572968 456.517487,397.239899 C458.543915,394.605072 458.983032,392.434235 457.170837,389.626038 C456.004913,387.819336 455.088959,385.814423 454.310272,383.801941 C452.336670,378.701294 449.564728,375.492767 443.229156,376.211792 C438.821320,376.712006 435.873871,373.297363 435.763702,369.246948 C435.651855,365.134827 438.380188,361.877563 442.870209,361.814880 C456.030365,361.631226 469.195312,361.736603 482.357513,361.839294 C483.610840,361.849091 484.858093,362.634216 486.432190,363.316742 z M528.223694,432.743256 C535.876587,423.279541 543.910645,414.107178 551.237915,403.830139 C527.588501,403.830139 504.792999,403.830139 481.085968,403.830139 C490.538055,421.546814 499.551544,438.441376 508.944092,456.046387 C515.708496,447.883545 521.748901,440.594299 528.223694,432.743256 z M436.014587,456.862610 C454.400665,456.862610 472.786743,456.862610 492.871796,456.862610 C483.831970,439.826202 475.588135,424.289917 466.787659,407.704590 C454.246674,424.374847 442.514404,439.970123 430.844849,455.482025 C432.504547,457.233337 433.926544,456.638611 436.014587,456.862610 z"/>
  <path fill="currentColor" d="M560.905640,543.663330 C552.891968,563.832092 540.776794,581.219910 529.461487,599.051697 C524.405701,607.019165 519.036377,614.787659 514.126709,622.169373 C512.294067,622.393799 511.716461,621.767273 511.256927,621.074463 C495.894409,597.913025 479.823456,575.155518 467.842041,549.962341 C453.515778,519.838806 469.501160,486.353760 501.809906,478.110443 C531.781433,470.463440 563.048279,494.597504 563.400757,525.577332 C563.469543,531.620789 563.024170,537.544556 560.905640,543.663330 z M532.640869,512.891479 C523.312134,501.699341 508.538971,499.847656 497.582367,508.497131 C487.813904,516.208618 485.794159,531.136414 493.154633,541.221863 C500.902710,551.838440 516.106018,554.396851 526.990845,546.915894 C537.989868,539.356506 540.519531,525.411438 532.640869,512.891479 z"/>
</svg>
